<svg width="204" height="204" viewBox="0 0 204 204" fill="none" xmlns="http://www.w3.org/2000/svg">
<rect width="204" height="204" fill="white"/>
<path d="M42.0955 126.93C30.1366 116.957 24.7953 93.3076 42.7769 79.6288C49.8121 74.2746 55.5968 71.9252 61.0441 70.7137C77.6282 67.0209 92.4817 57.9306 103.774 45.2361C108.205 40.2561 112.934 35.6677 118.643 32.4789C136.778 22.3545 162.786 31.2264 170.952 50.3221C179.119 69.4179 167.569 94.3503 147.725 100.47C141.49 102.391 134.838 102.647 128.581 104.503C112.549 109.258 101.263 123.67 86.1539 130.835C72.0858 137.507 54.0544 136.901 42.0955 126.928V126.93Z" fill="#DCD9EB"/>
<path d="M174.783 152.497C165.989 151.887 171.902 152.116 165.447 151.354C159.394 150.64 160.919 149.18 156.499 148.886C156.875 148.421 157.04 147.828 157.098 147.231C157.174 146.448 157.005 145.656 157.118 144.875C157.144 144.702 157.098 144.527 156.968 144.423C157.001 144.226 157.031 144.029 157.059 143.832C157.096 143.577 157.12 143.324 157.133 143.069C157.747 142.861 158.318 142.539 158.818 142.123C159.279 141.74 159.75 141.228 159.952 140.639C160.064 140.462 160.179 140.282 160.306 140.107C160.263 140.458 160.226 140.706 160.205 140.955C160.181 141.219 160.12 141.552 160.395 141.65C160.635 141.734 160.778 141.448 160.912 141.249C161.113 140.953 161.241 140.622 161.341 140.272C161.488 140.17 161.635 140.066 161.782 139.967C161.827 140.103 161.888 140.23 161.998 140.326C162.093 140.116 162.173 139.893 162.24 139.664C163.489 138.816 164.475 137.786 164.566 136.116C164.573 136.008 164.646 135.893 164.709 135.796C165.098 135.194 165.375 134.537 165.613 133.866C166.269 132.012 166.219 130.203 165.388 128.468C165.524 128.302 165.665 128.142 165.767 127.951C165.773 128.038 165.78 128.124 165.784 128.211C166.723 126.894 167.093 125.563 166.848 124.088C166.654 122.911 166.206 121.875 165.607 120.921C165.845 119.588 165.972 118.826 165.747 116.01C165.533 113.327 164.319 110.837 162.58 109.087C163.264 108.17 163.831 107.17 164.302 106.126C164.884 104.797 165.319 103.411 165.503 101.965C165.531 101.2 165.369 100.499 165.206 99.7718C165.04 99.0709 164.841 98.3829 164.631 97.6993C162.452 90.9302 159.551 84.4294 156.73 77.9156C154.742 73.3618 151.913 66.7939 149.745 62.4132C149.332 61.5414 148.544 59.9427 148.181 59.0838C148.066 58.8372 146.472 55.06 146.314 54.6922C145.228 52.1784 143.995 49.5392 141.964 47.6311L149.998 44.0703C150.58 44.3234 151.164 44.4575 151.729 44.4575C152.192 44.4575 152.644 44.3667 153.07 44.1784L170.738 36.3515C173.237 35.2439 173.799 31.2331 172.021 27.2201C170.243 23.2049 166.892 20.9291 164.395 22.0346L146.725 29.8615C145.799 30.2725 145.12 31.0859 144.743 32.2087L131.582 38.0389C131.056 37.8182 130.524 37.6084 129.981 37.418C128.875 37.0632 127.326 36.4943 126.227 37.1844C125.715 37.5305 125.28 38.1947 125.34 38.8199C124.291 38.3223 123.052 37.9827 122.119 38.6901C121.726 39.0362 121.416 39.5532 121.475 40.0941C120.298 39.4754 118.786 38.9388 117.953 40.2217C117.637 40.6976 117.609 41.1411 117.773 41.5478C116.627 41.0135 115.35 40.8058 114.645 42.2141C113.801 43.7609 115.841 44.7171 116.973 45.206C117.211 45.3077 117.446 45.4029 117.684 45.4959L109.866 48.9594C109.78 48.8058 109.68 48.6263 109.57 48.4251C108.614 46.7117 106.682 43.246 105.888 41.3899C107.804 39.8669 108.073 38.2141 107.746 36.7798C107.134 34.0886 104.659 32.4186 102.299 31.9837C98.4589 31.2785 94.6449 32.6955 92.3886 33.9069C90.5497 34.8956 87.7396 38.1103 86.6601 39.3931C87.3004 38.5668 88.434 36.8858 88.6547 35.0838C83.8131 38.7723 81.8402 43.378 77.6563 49.4375C73.5156 55.4321 76.4794 57.9113 77.6563 62.2358C78.8331 66.5603 81.4962 74.8264 84.8169 74.1687C84.9921 74.1341 85.1544 74.0887 85.3101 74.0346C86.1084 76.2152 86.6947 78.4867 87.0668 81.5803C84.4275 82.0065 80.5032 82.7291 77.9202 83.2785C73.9981 84.1569 70.0435 85.0352 66.3312 86.6641C65.7082 86.954 65.0851 87.2764 64.4946 87.7112C62.8591 88.9313 61.3599 90.3548 60.1354 91.9881C58.805 93.7448 57.7947 95.7372 57.0332 97.7923C56.8861 98.2337 56.6741 98.781 56.5486 99.2266C56.4556 99.5555 56.2155 100.365 56.1354 100.68C56.0619 101.005 55.8694 101.812 55.7936 102.149C55.6725 102.716 55.5362 103.54 55.4258 104.122C55.1489 105.976 54.8136 109.148 54.5951 111.051L52.2587 127.248C52.2479 127.283 52.2436 127.32 52.2436 127.354V127.374C52.2479 127.441 52.2717 127.508 52.3193 127.571C53.0916 127.534 53.8553 127.521 54.6103 127.527C54.4004 129.351 54.1711 131.367 54.011 133.184C53.8185 135.478 53.6627 137.784 53.587 140.09C51.7893 139.809 40.2241 138.067 37.786 139.564C35.1403 141.191 35.997 143.822 28.9921 143.789C21.9872 143.757 23.7784 151.571 35.6854 151.205C47.5924 150.839 43.2769 161.43 58.3748 161.586C73.4727 161.741 75.7763 165.544 89.3231 165.622C91.1447 165.797 95.3372 166.664 97.2453 167.071C96.8559 167.328 96.473 167.594 96.1139 167.906C95.6314 168.324 95.2009 168.795 94.8158 169.327C94.0846 170.338 93.5005 171.458 92.8732 172.549C92.7196 172.817 92.5616 173.081 92.3972 173.342C92.3258 173.457 92.2501 173.572 92.1766 173.682C92.1809 173.676 92.1874 173.667 92.1939 173.658C92.1852 173.671 92.1766 173.684 92.1679 173.695C92.1636 173.702 92.1593 173.708 92.1549 173.715C92.1463 173.725 92.1376 173.738 92.1311 173.749C92.0879 173.81 92.0446 173.87 92.0014 173.931C91.8261 174.169 91.6422 174.398 91.4454 174.614C91.3567 174.712 91.2636 174.807 91.1684 174.9C91.1252 174.941 91.0819 174.982 91.0387 175.023C91.0127 175.047 90.9846 175.071 90.9586 175.095C90.9802 175.075 90.9975 175.06 91.0105 175.047C90.9932 175.062 90.9738 175.08 90.9629 175.09C90.7488 175.268 90.5238 175.424 90.288 175.562C89.9678 175.748 89.8467 176.285 90.0414 176.624C90.2512 176.992 90.6384 177.102 90.9824 176.903C91.2074 176.771 91.4194 176.624 91.6206 176.466L154.712 180.921C154.773 181.044 154.863 181.156 154.965 181.217C155.266 181.397 155.746 181.334 155.906 180.938C156.177 180.263 156.354 179.582 156.399 178.839C156.434 178.262 156.367 177.669 156.233 177.109C155.999 176.131 155.549 175.251 155.171 174.34C155.147 174.281 155.123 174.223 155.099 174.162C155.088 174.136 155.08 174.113 155.069 174.087C155.028 173.978 155.071 174.106 155.093 174.156C155.043 174.059 155.015 173.931 154.982 173.825C154.928 173.643 154.883 173.457 154.855 173.269C154.844 173.126 154.842 172.983 154.855 172.841C154.9 172.533 154.961 172.23 154.982 171.917C155.004 171.584 154.978 171.257 154.937 170.928C154.889 170.545 154.794 170.177 154.677 169.818C156.361 169.749 157.71 165.106 162.898 164.732C169.279 164.269 161.02 162.286 167.792 161.935C186.299 161.441 172.686 151.354 174.783 152.497ZM145.743 96.172L145.537 96.0941L143.212 94.9432L136.527 91.4581L122.837 85.059L115.556 83.1055H108.568L107.218 82.344L106.249 79.3175L105.717 77.0525L109.397 75.9795L114.55 73.6279V69.2688L113.373 65.2558L112.542 61.4159L112.006 59.4105L111.867 58.623L112.516 58.3202L116.205 57.0524L118.591 56.2239L120.058 55.9383L122.08 56.7301L125.202 58.1839L129.059 58.4002C129.059 58.4002 131.774 58.3829 131.809 58.3915C131.843 58.4002 135.259 58.504 135.259 58.504L136.8 59.3434L138.502 62.2142C138.502 62.2142 139.402 64.3667 139.419 64.4705C139.437 64.5743 139.973 68.6652 139.973 68.6652L142.706 81.7923L144.004 89.5219L145.853 95.5057L145.741 96.172H145.743Z" fill="white"/>
<path d="M82.3961 175.063C82.4372 175.03 82.4697 175.002 82.3961 175.063V175.063Z" fill="white"/>
<path d="M83.692 173.73C83.692 173.73 83.7028 173.717 83.7071 173.71C83.7071 173.71 83.7093 173.706 83.7115 173.706C83.7136 173.704 83.7158 173.7 83.718 173.697C83.612 173.827 83.6552 173.775 83.692 173.732V173.73Z" fill="white"/>
<path d="M97.1698 52.2434C97.4012 52.1071 97.7473 51.9081 97.9896 51.8021C98.3336 51.6399 98.6949 51.5728 99.0518 51.5036C99.4023 51.4279 99.7376 51.3046 100.079 51.1986C100.575 51.0276 101.023 50.9152 101.533 50.6361L101.544 50.4825C101.072 50.1212 100.564 49.9135 99.9929 49.8356C98.8117 49.6496 98.0156 50.2315 97.1373 50.9065C96.1076 51.7156 95.3331 52.821 94.6992 53.9525L94.8204 54.0498C95.5624 53.4052 96.3369 52.7605 97.1698 52.2478V52.2434Z" fill="#4D4D4D"/>
<path d="M99.8977 55.9664C98.7057 56.3904 97.6348 57.4916 97.624 58.8047C98.4266 58.0735 99.3136 57.4851 100.317 57.1325C101.351 56.7539 102.364 56.6868 103.504 56.4878C102.492 55.709 101.105 55.5381 99.8977 55.9664Z" fill="#4D4D4D"/>
<path d="M87.0799 65.2557C86.6062 65.2038 86.1605 65.2211 85.743 65.1345C85.5526 65.0978 85.3882 65.035 85.2649 64.9052C85.0507 64.6759 84.9166 64.3406 84.776 64.0118C84.5986 63.5964 84.4255 63.1335 84.1746 62.7311C83.1902 63.8171 83.3222 66.0107 84.949 66.4001C85.8317 66.597 86.7295 66.054 87.0799 65.2557Z" fill="#4D4D4D"/>
<path d="M108.294 67.0038C107.465 67.3608 106.626 67.5966 105.73 67.7913L105.719 67.9773C106.236 68.1504 106.777 68.2586 107.333 68.3213C108.179 68.423 109.051 68.291 109.899 68.1872C110.807 68.0336 111.508 67.205 111.69 66.3029L111.586 66.1493C111.221 66.0736 110.922 66.0714 110.643 66.0823C110.148 66.1125 109.648 66.1753 109.241 66.4717C108.951 66.6923 108.635 66.8784 108.294 67.0082V67.0038Z" fill="#4D4D4D"/>
<path d="M104.839 66.7917C104.354 67.4018 104.255 68.3126 104.603 69.0113C105.092 68.4013 105.185 67.4905 104.839 66.7917Z" fill="#4D4D4D"/>
<path d="M108.425 61.0868C108.014 61.4589 107.502 61.7726 106.985 62.0019C106.444 62.2421 105.86 62.4086 105.206 62.4173C105.49 62.5795 105.819 62.6791 106.154 62.7266C107.184 62.8651 108.259 62.6033 109.148 62.0647C109.847 61.632 110.351 61.0371 110.013 60.1717C109.745 59.3865 109.375 58.6596 109.031 57.9392C107.898 55.6655 106.79 53.5 105.587 51.2372C105.615 54.4605 107.019 57.5022 108.493 60.2886C108.577 60.4551 108.65 60.6023 108.718 60.758C108.642 60.8748 108.54 60.9808 108.428 61.0847L108.425 61.0868ZM108.759 60.665C108.774 60.6434 108.767 60.6715 108.754 60.6996C108.75 60.7061 108.746 60.7104 108.743 60.7169C108.748 60.6888 108.754 60.6736 108.759 60.665Z" fill="#4D4D4D"/>
<path d="M156.499 148.886C156.876 148.421 157.04 147.828 157.098 147.231C157.174 146.448 157.005 145.656 157.118 144.875C157.144 144.702 157.098 144.527 156.969 144.423C157.001 144.226 157.031 144.029 157.059 143.832C157.096 143.577 157.12 143.324 157.133 143.069C157.747 142.861 158.318 142.539 158.818 142.123C159.279 141.74 159.751 141.228 159.952 140.639C160.064 140.462 160.179 140.282 160.307 140.107C160.263 140.458 160.227 140.706 160.205 140.955C160.181 141.219 160.12 141.552 160.395 141.649C160.635 141.734 160.778 141.448 160.912 141.249C161.113 140.953 161.241 140.622 161.341 140.271C161.488 140.17 161.635 140.066 161.782 139.966C161.827 140.103 161.888 140.23 161.998 140.326C162.093 140.116 162.173 139.893 162.241 139.664C163.489 138.816 164.475 137.786 164.566 136.116C164.573 136.008 164.646 135.893 164.709 135.796C165.098 135.194 165.375 134.536 165.613 133.866C166.269 132.012 166.219 130.203 165.388 128.468C165.525 128.302 165.665 128.142 165.767 127.951C165.773 128.038 165.78 128.124 165.784 128.211C166.723 126.893 167.093 125.563 166.848 124.088C166.654 122.911 166.206 121.874 165.607 120.92C165.845 119.588 165.972 118.826 165.747 116.01C165.533 113.327 164.32 110.837 162.58 109.087C163.264 108.17 163.831 107.17 164.302 106.125C164.884 104.797 165.319 103.41 165.503 101.965C165.531 101.199 165.369 100.499 165.206 99.7717C165.04 99.0708 164.841 98.3828 164.631 97.6992C162.453 90.9301 159.552 84.4293 156.731 77.9155C154.742 73.3617 151.913 66.7938 149.745 62.4131C149.332 61.5412 148.545 59.9425 148.181 59.0837C148.066 58.8371 146.472 55.0599 146.314 54.6921C145.228 52.1783 143.995 49.5391 141.964 47.631L149.998 44.0702C150.58 44.3233 151.164 44.4574 151.729 44.4574C152.192 44.4574 152.644 44.3665 153.07 44.1783L170.738 36.3514C173.237 35.2438 173.799 31.2329 172.021 27.2199C170.243 23.2048 166.892 20.929 164.395 22.0344L146.725 29.8614C145.799 30.2724 145.12 31.0858 144.744 32.2086L131.582 38.0388C131.056 37.8181 130.524 37.6083 129.981 37.4179C128.875 37.0631 127.327 36.4942 126.228 37.1843C125.715 37.5304 125.28 38.1945 125.341 38.8197C124.291 38.3222 123.052 37.9825 122.119 38.6899C121.726 39.0361 121.416 39.5531 121.475 40.0939C120.298 39.4752 118.786 38.9387 117.953 40.2216C117.637 40.6975 117.609 41.141 117.773 41.5477C116.627 41.0134 115.35 40.8057 114.645 42.214C113.801 43.7608 115.841 44.717 116.973 45.2059C117.211 45.3076 117.447 45.4028 117.685 45.4958L109.866 48.9593C109.78 48.8057 109.68 48.6261 109.568 48.4249C108.612 46.7116 106.68 43.2459 105.886 41.3898C107.802 39.8668 108.071 38.214 107.744 36.7797C107.132 34.0885 104.657 32.4184 102.297 31.9836C98.4568 31.2784 94.6429 32.6953 92.3865 33.9068C90.5477 34.8955 87.7375 38.1102 86.658 39.393C87.2984 38.5666 88.432 36.8857 88.6526 35.0837C83.8111 38.7721 81.8381 43.3779 77.6542 49.4374C73.5136 55.432 76.4774 57.9112 77.6542 62.2357C78.8311 66.5602 81.4941 74.8263 84.8148 74.1686C84.9901 74.134 85.1523 74.0886 85.3081 74.0345C86.1064 76.2151 86.6926 78.4866 87.0647 81.5802C84.4254 82.0064 80.5012 82.7289 77.9181 83.2784C73.996 84.1567 70.0415 85.035 66.3292 86.664C65.7061 86.9539 65.0831 87.2763 64.4925 87.7111C62.857 88.9312 61.3578 90.3547 60.1334 91.988C58.8029 93.7446 57.7927 95.7371 57.0312 97.7922C56.8841 98.2335 56.6721 98.7809 56.5466 99.2265C56.4536 99.5553 56.2134 100.364 56.1334 100.68C56.0598 101.005 55.8673 101.812 55.7916 102.149C55.6704 102.716 55.5341 103.54 55.4238 104.122C55.1469 105.976 54.8116 109.148 54.5931 111.051L52.2567 127.248C52.2459 127.283 52.2415 127.32 52.2415 127.354V127.374C52.2459 127.441 52.2697 127.508 52.3172 127.571C59.5471 127.216 66.1734 128.955 69.5612 129.853C70.5607 130.119 71.1902 130.357 71.5731 130.645L71.4866 130.64L71.6272 143.049C68.4384 142.448 65.5331 142.867 61.652 144.152L61.6953 144.302C62.6342 144.064 63.5774 143.841 64.525 143.664C67.0647 143.142 69.3643 143.207 71.6358 143.767V143.793L71.638 143.77C72.9663 144.098 74.2859 144.594 75.638 145.243C78.2924 146.556 81.2237 147.242 84.1161 147.741C88.8408 148.47 94.1821 149.176 98.8722 147.908C99.8847 147.581 100.83 146.995 101.563 146.262C102.286 145.565 102.825 144.732 103.448 143.984C103.744 143.622 104.066 143.298 104.445 143.043C104.819 142.783 105.799 142.307 106.269 142.21C106.437 142.18 106.578 142.154 106.825 142.108C109.821 141.701 112.875 141.773 115.88 142.054C117.198 142.18 118.513 142.35 119.82 142.573C120.138 142.627 120.454 142.686 120.769 142.746C122.758 143.129 124.72 143.644 126.619 144.334C127.151 144.553 128.036 144.745 128.291 145.277C128.488 145.662 128.246 146.121 127.865 146.281C127.649 146.383 127.35 146.381 127.089 146.299C127.071 146.294 127.06 146.292 127.037 146.283L126.965 146.26L126.678 146.162C125.211 145.634 123.69 145.184 122.143 144.877C121.522 144.754 120.897 144.652 120.27 144.579C119.913 144.538 119.556 144.503 119.197 144.479C118.559 144.436 117.918 144.425 117.278 144.447C116.495 144.473 115.712 144.551 114.935 144.689L114.941 144.843C115.547 144.901 116.146 144.972 116.746 145.055C117.083 145.102 117.421 145.152 117.758 145.208C117.858 145.247 117.957 145.286 118.057 145.325C119.348 145.831 120.627 146.309 121.894 146.909C122.377 147.131 122.87 147.359 123.37 147.586C124.681 148.181 126.029 148.769 127.329 149.267C127.502 149.331 127.688 149.407 127.859 149.502C127.943 149.559 128.027 149.615 128.112 149.671C128.192 149.736 128.261 149.807 128.317 149.89C128.62 150.27 128.428 150.813 128.047 151.062C128.017 151.082 127.986 151.101 127.954 151.116C127.556 151.33 127.063 151.224 126.669 151.028C125.271 150.407 123.835 149.794 122.377 149.31C121.055 148.873 119.699 148.535 118.325 148.315C117.258 148.144 116.183 148.046 115.102 148.029L115.093 148.183C116.287 148.321 117.516 148.546 118.675 148.856C118.807 148.89 118.937 148.925 119.069 148.962C121.2 149.559 123.216 150.476 125.187 151.478C125.343 151.64 125.483 151.813 125.587 152.012C126.042 152.799 125.421 153.606 124.603 153.518C124.57 153.513 124.536 153.509 124.503 153.502C124.317 153.466 124.179 153.414 123.991 153.329L123.521 153.137C122.799 152.858 121.894 152.488 121.027 152.17C120.508 151.979 120.006 151.809 119.562 151.687C117.6 151.131 115.534 150.872 113.505 150.909C113.444 150.909 113.384 150.909 113.325 150.911L113.317 151.062C114.178 151.192 115.024 151.359 115.857 151.562C117.483 152.622 118.924 153.838 120.352 155.142C120.499 155.276 120.888 155.629 121.029 155.761C121.466 156.148 122.024 156.812 121.663 157.401C121.362 157.846 120.648 157.727 120.224 157.463C119.443 157.029 118.868 156.382 118.178 155.789C116.945 154.764 116.053 154.143 114.589 153.563C114.595 153.518 114.063 153.409 114.063 153.409C113.122 153.213 112.175 153.018 111.199 153.158C111.106 153.171 111.015 153.191 110.922 153.21C110.524 153.301 110.143 153.457 109.791 153.641C108.936 154.089 107.893 154.822 107.078 155.317L106.937 155.4L106.928 155.404L106.79 155.473L106.645 155.547L106.494 155.612C103.584 156.784 99.7851 156.248 96.7781 155.54C96.419 155.454 96.0728 155.341 95.7116 155.27C95.0799 155.157 94.4222 155.138 93.8078 155.149C91.4109 155.196 89.0507 155.571 86.6948 155.943C81.174 156.89 75.5407 158.067 70.0328 159.071C67.2075 159.573 64.3281 160.25 61.4552 159.986C59.8089 159.813 58.2751 159.114 57.2432 157.777C55.8543 155.986 55.2702 153.65 54.8808 151.439C54.7142 150.536 54.5909 149.582 54.4828 148.67C53.7451 141.658 54.1626 134.591 54.7445 127.579L54.5909 127.564C54.3746 129.433 54.1712 131.307 54.0047 133.184C53.8121 135.478 53.6563 137.784 53.5806 140.09C44.5657 138.679 42.638 139.094 35.3026 139.213C13.6293 139.562 27.2303 160.79 41.9443 161.236C53.8513 160.87 51.6662 164.926 66.7641 165.081C81.862 165.237 75.77 165.544 89.3168 165.621C91.1383 165.797 95.3308 166.664 97.2389 167.071C96.8495 167.328 96.4666 167.594 96.1075 167.906C95.625 168.323 95.1945 168.795 94.8095 169.327C94.0783 170.337 93.4942 171.458 92.8668 172.548C92.7132 172.817 92.5553 173.081 92.3908 173.342C92.3195 173.457 92.2437 173.572 92.1702 173.682C92.1745 173.675 92.181 173.667 92.1875 173.658C92.1788 173.671 92.1702 173.684 92.1615 173.695C92.1572 173.701 92.1529 173.708 92.1486 173.714C92.1399 173.725 92.1312 173.738 92.1248 173.749C92.0815 173.81 92.0382 173.87 91.995 173.931C91.8197 174.169 91.6358 174.398 91.439 174.614C91.3503 174.712 91.2573 174.807 91.1621 174.9C91.1188 174.941 91.0756 174.982 91.0323 175.023C91.0063 175.047 90.9782 175.071 90.9522 175.095C90.9739 175.075 90.9912 175.06 91.0042 175.047C90.9869 175.062 90.9674 175.079 90.9566 175.09C90.7424 175.268 90.5174 175.423 90.2816 175.562C89.9614 175.748 89.8403 176.284 90.035 176.624C90.2448 176.992 90.6321 177.102 90.976 176.903C93.068 175.683 94.0674 173.141 95.3611 171.064C95.4368 170.943 95.5125 170.824 95.5904 170.707C95.6229 170.658 95.783 170.43 95.6337 170.642C95.6769 170.58 95.7202 170.517 95.7656 170.456C95.943 170.21 96.1291 169.974 96.326 169.749C96.4168 169.647 96.5098 169.546 96.605 169.451C96.6483 169.407 96.6916 169.364 96.737 169.321C96.763 169.295 96.7911 169.269 96.817 169.245C96.8279 169.236 96.8365 169.226 96.8473 169.217C96.8733 169.21 97.0334 169.059 97.055 169.044C97.1156 168.996 97.174 168.949 97.2346 168.903C97.3795 168.793 97.5288 168.689 97.6802 168.585C98.2686 168.185 98.883 167.828 99.4541 167.393C100.075 166.919 100.631 166.342 101.172 165.758C102.241 164.602 103.214 163.333 104.071 161.97C104.501 161.284 104.921 160.587 105.369 159.915C105.416 159.843 105.462 159.774 105.509 159.705C105.537 159.664 105.566 159.62 105.594 159.579C105.594 159.577 105.598 159.573 105.6 159.568C105.706 159.4 105.827 159.24 105.942 159.077C106.158 158.772 106.377 158.469 106.6 158.171C107.61 156.812 108.694 155.523 109.842 154.311C110.29 154.006 110.762 153.743 111.294 153.611C111.82 153.481 112.374 153.461 112.925 153.483C113.345 153.5 113.754 153.619 114.119 153.823C114.208 153.872 114.29 153.918 114.347 153.95C115.521 154.634 116.724 155.38 117.656 156.358C118.325 157.068 118.961 157.918 119.826 158.446C120.668 158.997 121.929 159.017 122.623 158.19C123.352 157.37 123.182 156.127 122.623 155.279C122.111 154.543 121.423 153.874 120.661 153.299C120.798 153.366 120.936 153.433 121.07 153.502C121.674 153.807 122.254 154.162 122.857 154.515C123.244 154.729 123.642 154.971 124.09 155.06C124.309 155.112 124.536 155.127 124.759 155.11C127.253 156.966 129.364 158.275 131.355 159.229C134.394 160.685 137.28 161.377 140.532 161.377C141.557 161.377 142.617 161.308 143.731 161.174C143.926 161.948 144.311 162.407 144.676 162.677C143.98 163.194 143.311 163.943 143.642 164.771C143.857 165.312 144.445 165.903 145.276 166.006C145.36 166.017 145.449 166.024 145.542 166.024C146.325 166.024 147.42 165.6 148.64 163.878C149.001 164.252 149.451 164.494 149.951 164.548C150.29 164.585 150.621 164.531 150.929 164.401C151.06 164.756 151.197 165.111 151.337 165.461C151.681 166.32 152.045 167.166 152.419 168.008C152.692 168.622 152.973 169.234 153.217 169.864C153.228 169.892 153.239 169.918 153.248 169.946C153.269 170.009 153.293 170.069 153.315 170.132C153.362 170.27 153.406 170.409 153.447 170.549C153.509 170.772 153.559 170.997 153.592 171.229C153.618 171.512 153.618 171.796 153.589 172.077C153.535 172.44 153.453 172.795 153.47 173.169C153.49 173.598 153.576 174.017 153.711 174.418C153.855 174.846 154.031 175.259 154.212 175.668C154.297 175.858 154.381 176.046 154.461 176.239C154.502 176.334 154.541 176.429 154.58 176.527C154.6 176.572 154.617 176.62 154.634 176.665C154.639 176.678 154.645 176.691 154.649 176.704C154.805 177.137 154.931 177.58 154.998 178.041C155.03 178.368 155.032 178.697 155.002 179.023C154.976 179.216 154.939 179.406 154.892 179.592C154.861 179.707 154.829 179.822 154.792 179.934C154.773 179.992 154.753 180.051 154.734 180.109C154.734 180.116 154.732 180.118 154.729 180.12C154.723 180.133 154.717 180.146 154.712 180.159C154.634 180.354 154.591 180.542 154.643 180.758C154.686 180.938 154.81 181.135 154.959 181.223C155.26 181.403 155.74 181.34 155.9 180.944C156.17 180.269 156.348 179.588 156.393 178.846C156.428 178.268 156.361 177.676 156.227 177.115C155.993 176.137 155.543 175.257 155.164 174.346C155.141 174.288 155.117 174.229 155.093 174.169C155.082 174.143 155.073 174.119 155.063 174.093C155.022 173.985 155.065 174.112 155.086 174.162C155.037 174.065 155.009 173.937 154.976 173.831C154.922 173.65 154.877 173.463 154.848 173.275C154.838 173.132 154.835 172.99 154.848 172.847C154.892 172.54 154.954 172.237 154.976 171.923C154.998 171.59 154.972 171.263 154.931 170.935C154.883 170.552 154.788 170.184 154.671 169.825C163.618 169.457 162.355 164.844 171.287 164.382C182.96 164.071 180.081 150.454 171.287 149.844C166.312 149.844 164.171 149.397 156.499 148.886ZM152.058 159.002C152.198 158.839 152.296 158.658 152.363 158.45C153.146 157.598 154.197 156.73 154.762 156.849C154.872 156.873 155.037 156.949 155.164 157.336C155.714 158.984 155.022 159.674 154.697 159.895C154.533 160.008 154.446 160.226 154.485 160.44C154.522 160.652 154.675 160.819 154.866 160.851C155.85 161.018 156.488 161.386 156.467 161.624C156.439 161.937 156.198 162.385 155.738 162.625C154.985 163.017 153.91 162.736 152.692 161.831C152.705 161.745 152.715 161.66 152.722 161.572C152.804 160.581 152.54 159.657 152.058 159.004V159.002ZM161.518 139.571C161.533 139.499 161.55 139.426 161.566 139.354C161.579 139.374 161.589 139.395 161.6 139.415C161.572 139.467 161.544 139.519 161.518 139.571ZM133.55 49.6775C132.179 50.2854 130.169 48.3276 129.224 46.1924C128.659 44.9203 128.417 43.6094 128.538 42.5039C128.642 41.5629 129.01 40.8857 129.55 40.6456L144.436 34.0518C144.365 35.5985 144.72 37.3357 145.457 39.0015C146.223 40.7278 147.279 42.1318 148.432 43.0858L133.55 49.6797V49.6775ZM124.097 52.6737C123.034 52.4747 121.99 52.187 120.958 51.8538C120.278 51.6353 119.309 51.2979 118.621 51.1356C118.07 51.008 117.41 50.9063 116.914 51.2979C116.384 51.6656 116.159 52.3817 116.345 52.9874C116.62 53.8852 117.321 54.6164 118.096 55.2243L113.278 57.3595C113.163 57.4114 113.04 57.4352 112.912 57.4352C111.958 57.4352 110.697 56.1091 110.065 54.6835C109.349 53.0653 109.271 50.9366 110.241 50.5061L126.959 43.0988C126.963 44.2822 127.255 45.578 127.807 46.8219C128.378 48.1134 129.15 49.1864 130.005 49.9609L124.095 52.6737H124.097ZM126.822 86.1102C126.057 85.6992 125.284 85.2838 124.497 84.9117C119.259 82.3222 113.535 81.1908 107.716 82.0323C107.716 82.0323 107.731 82.1275 107.755 82.2746C107.329 80.7473 106.896 79.1746 106.491 77.6819C107.51 77.63 108.523 77.4699 109.52 77.2146C111.718 76.6413 113.933 75.4623 115.026 73.3639C115.413 72.6002 115.632 71.6916 115.519 70.8003C115.476 70.4845 115.413 70.1578 115.35 69.8484C115.008 68.1654 114.383 66.2249 113.819 64.7862C113.256 62.8868 112.596 60.7495 111.973 58.7916C112.3 58.9063 112.627 58.9669 112.947 58.9669C113.28 58.9669 113.602 58.902 113.91 58.7657L119.575 56.2562L119.56 56.2194C121.656 57.4655 123.904 58.5234 126.342 58.863C128.434 59.1486 130.561 58.9387 132.648 58.8284C134.076 58.7419 135.398 59.0577 136.397 60.1307C138.803 62.783 139.355 68.7906 139.928 72.3471C141.092 80.3406 142.271 88.5115 145.583 95.9664C145.605 96.0161 145.628 96.0659 145.65 96.1135C139.35 92.8274 133.055 89.5175 126.825 86.1059L126.822 86.1102ZM167.541 25.0826C168.525 25.7337 169.659 27.2394 169.892 29.7316C168.975 27.2416 167.363 24.9917 165.343 26.7483C164.992 25.591 166.007 24.068 167.541 25.0826ZM147.368 31.2827L162.349 24.6456C161.845 26.4173 162.076 28.7949 163.128 31.1724C164.181 33.5499 165.786 35.3173 167.437 36.135L152.456 42.7722C150.807 43.5034 148.25 41.4893 146.87 38.3741C146.161 36.7732 145.855 35.1226 146.009 33.7229C146.145 32.4768 146.628 31.6094 147.365 31.2827H147.368ZM126.474 38.3157C126.809 37.4915 127.735 37.5369 128.521 37.5888C129.483 37.684 130.435 37.896 131.376 38.1448L128.925 39.2308C128.782 39.2935 128.648 39.3692 128.519 39.4536C128.272 39.3952 128.03 39.3346 127.792 39.2719C127.402 39.1637 126.957 39.0361 126.63 38.8479C126.53 38.7873 126.457 38.7354 126.409 38.6661C126.381 38.6315 126.39 38.4952 126.474 38.3157ZM122.427 39.2675C123.024 38.4433 124.335 38.6553 125.386 38.995C125.423 39.1399 125.488 39.2827 125.587 39.4168C125.864 39.7997 126.279 40.0377 126.654 40.2324C126.928 40.3709 127.212 40.4963 127.495 40.6131C127.376 40.8381 127.277 41.0869 127.197 41.353L127.177 41.3097L126.455 41.6299C125.719 41.4677 124.999 41.3141 124.302 41.1215C123.632 40.916 122.559 40.6391 122.262 40.0312C122.16 39.7824 122.297 39.4904 122.427 39.2697V39.2675ZM118.405 40.797C118.764 39.3952 120.348 39.7976 121.516 40.2281C121.717 41.2189 123.171 41.9393 124.54 42.4758L123.173 43.0815C121.827 42.7678 118.143 42.0301 118.405 40.7949V40.797ZM115.173 42.7332C115.454 41.234 116.739 41.366 117.884 41.7424C118.407 42.6748 119.919 43.4125 121.228 43.9425L119.664 44.6348C118.375 44.3471 115.052 43.817 115.175 42.731L115.173 42.7332ZM82.0653 65.9112C80.8884 63.5942 80.4752 61.2081 82.9306 59.8236C85.386 58.439 87.0171 60.8922 89.6066 63.0058C90.645 63.8538 91.4217 63.7154 92.6678 62.2616C93.9138 60.8079 92.2005 57.7467 91.5255 56.8079C90.8506 55.869 89.9182 54.0648 89.5547 51.0036C89.1913 47.9425 93.81 45.8679 100.553 43.8906C102.39 43.3519 103.798 42.7505 104.867 42.1123C105.516 43.5769 106.684 45.7446 107.647 47.4904C107.21 47.512 106.74 47.5899 106.383 47.7824L107.121 49.1432C107.337 49.0264 108.001 49.0069 108.519 49.061C108.642 49.2816 108.752 49.4785 108.843 49.6451C107.774 50.7916 107.651 53.0566 108.65 55.3087C109.397 56.9939 110.569 58.2184 111.768 58.7224C112.06 60.8511 112.451 62.9669 112.875 65.0718C113.401 66.969 113.881 68.8922 114.117 70.8436C114.189 71.4731 114.035 72.1026 113.713 72.6846C112.408 74.9323 109.633 75.7673 107.166 76.1243C103.125 76.6673 99.0496 75.2481 95.4087 73.5737C94.1518 72.9853 92.9187 72.3341 91.7094 71.6224C92.7608 72.5591 93.9052 73.392 95.095 74.1448C97.9549 75.9274 101.174 77.3314 104.562 77.6473C105.278 79.114 105.996 80.5764 106.721 82.0367C107.29 83.1746 108.071 84.7495 108.7 85.9653C109.025 87.1205 109.109 88.399 108.629 89.4699C107.965 90.9518 106.329 91.577 104.821 91.8712C103.991 92.0442 102.933 92.0962 102.08 92.1546C101.689 92.1546 100.8 92.1827 100.417 92.1503C100.229 92.1394 99.7721 92.12 99.5883 92.1113C99.4065 92.1113 98.9479 92.0464 98.764 92.0291C98.0415 91.9577 97.293 91.8366 96.5899 91.67C96.2827 91.5964 95.8176 91.5056 95.5212 91.4039C93.1956 90.7441 90.9695 89.6602 89.0615 88.1675C88.8884 81.5088 88.2589 77.485 86.6515 73.1865C88.0209 71.6808 87.7527 69.048 87.0431 68.2324C84.38 69.4439 83.2378 68.2324 82.0631 65.9155L82.0653 65.9112ZM75.4736 134.002C75.5082 134.123 75.5428 134.251 75.5796 134.379C76.0404 136.005 76.685 138.279 77.2994 140.786H71.9755L72.644 134.521C73.7689 134.387 74.7034 134.257 75.4714 134.002H75.4736ZM115.952 141.293C112.923 141.21 109.855 141.264 106.887 141.909L106.894 141.905C106.316 141.905 105.918 141.957 105.401 142.065C104.514 142.249 103.621 142.913 102.963 143.497C102.21 144.172 101.576 144.897 100.858 145.45C100.146 146.011 99.3589 146.398 98.5066 146.604C97.4011 146.859 96.2048 146.909 95.0626 146.958C94.1367 146.984 93.1307 146.993 92.207 146.989C88.1075 146.965 83.9387 146.705 79.9473 145.721C79.1361 141.249 77.8446 136.695 77.0701 133.957C76.9966 133.695 76.9274 133.45 76.8625 133.219C77.3946 132.726 77.7819 132.02 78.0415 130.976C78.0804 130.813 78.1193 130.64 78.1345 130.474C78.234 129.569 78.2059 128.639 78.1929 127.737C78.0177 120.925 77.28 113.645 77.1567 106.828C76.7521 113.611 76.9187 120.933 76.5682 127.709C76.5293 128.351 76.4925 128.985 76.4146 129.617C71.1274 125.543 66.9371 125.675 61.877 125.533C57.7927 125.418 54.9197 125.877 53.4314 126.448C53.89 123.032 55.2702 109.729 55.6337 107.183C55.7483 106.309 55.9538 105.117 56.0988 104.25C56.1701 103.917 56.3346 103.131 56.406 102.803C56.5163 102.255 56.7564 101.437 56.8927 100.894C57.0593 100.354 57.3016 99.5575 57.5006 99.0275C57.6261 98.6965 57.81 98.2119 57.9354 97.8831C57.9982 97.7381 58.3616 96.9269 58.433 96.7668C59.6986 94.0497 61.5374 91.6137 63.8716 89.7295C64.3043 89.3877 64.7802 89.0242 65.228 88.7084C65.7148 88.3709 66.2837 88.0897 66.87 87.8409C68.0577 87.3412 69.3081 86.9496 70.5563 86.5991C75.2919 85.3184 80.181 84.4747 85.0485 83.7933C84.9079 85.0415 85.8446 86.5342 87.0863 87.9317C90.4071 91.657 95.4455 93.6321 100.395 93.6343C100.804 93.6559 101.747 93.5867 102.173 93.5715C102.963 93.485 103.744 93.3985 104.525 93.2384C105.304 93.0567 106.119 92.823 106.833 92.4531C108.884 91.4731 109.946 89.5456 109.384 87.3022C109.237 86.6878 109.001 86.1081 108.694 85.5737C108.553 85.0935 108.415 84.611 108.276 84.1308C113.635 83.114 118.974 83.9339 123.971 86.0843C124.759 86.4066 125.522 86.7679 126.295 87.1313C129.007 88.438 131.731 89.723 134.459 90.9972C133.196 92.5137 132.834 94.5797 132.748 96.4618C132.692 98.266 132.808 99.5207 133.31 101.059C132.789 101.275 132.315 101.613 131.939 102.06C130.861 103.339 130.877 104.62 131.766 105.654C130.569 105.386 129.284 105.024 128.138 105.347C126.662 105.617 125.211 106.59 124.265 108.042C123.813 108.287 123.452 108.665 123.13 109.063C122.855 109.403 122.602 109.762 122.377 110.138C122.091 110.487 121.84 110.857 121.639 111.265C121.113 112.347 121.033 113.481 121.087 114.636C120.971 114.863 120.849 115.088 120.726 115.311C120.438 115.832 120.129 116.349 119.755 116.814C119.683 116.903 119.608 116.99 119.532 117.074C119.231 117.336 118.937 117.563 118.623 117.766C117.6 118.428 116.557 119.062 115.536 119.726C114.55 120.369 113.659 121.117 113.029 122.132C112.328 123.261 112.211 124.512 112.287 125.799C112.298 125.963 112.317 126.171 112.51 126.216C112.707 126.264 112.811 126.086 112.888 125.939C113.064 125.613 113.261 125.29 113.382 124.942C113.656 124.142 114.074 123.434 114.604 122.796C114.422 123.32 114.271 123.824 114.23 124.181C114.204 124.399 114.044 124.933 113.959 125.219L113.916 125.362C113.801 125.749 113.687 126 113.481 126.275C113.031 126.664 112.614 127.09 112.35 127.674C113.687 127.622 114.775 126.72 115.223 125.79C115.272 126.169 115.223 126.562 115.067 126.915C114.939 127.205 114.725 127.447 114.654 127.763C114.649 127.787 114.645 127.811 114.641 127.834C114.282 128.598 114.182 129.457 114.494 130.205C115.149 129.533 115.56 128.715 116.006 127.921C116.172 127.625 116.348 127.337 116.538 127.06C116.531 127.088 116.525 127.114 116.519 127.142C116.447 127.503 116.443 127.865 116.458 128.23C116.462 128.339 116.467 128.447 116.471 128.555C115.742 129.877 115.679 131.549 116.417 132.756C116.841 133.45 117.444 134.037 117.364 134.941C117.356 135.038 117.414 135.151 117.524 135.179C117.641 135.207 117.706 135.114 117.752 135.021C117.927 134.662 118.067 134.294 118.171 133.92C118.191 134.032 118.217 134.145 118.251 134.257C118.29 134.389 118.327 134.519 118.359 134.649C117.979 135.378 117.925 136.168 118.184 137.007C118.604 138.361 119.809 139.49 121.224 140.033C120.782 140.198 120.425 140.483 120.185 140.923C120.062 141.15 119.969 141.379 119.908 141.611C118.591 141.45 117.267 141.347 115.943 141.295L115.952 141.293ZM129.775 150.147C129.715 149.057 128.882 148.341 127.971 147.921C129.083 147.687 129.983 146.738 129.871 145.444C129.791 144.548 129.083 143.826 128.291 143.516C127.74 143.3 127.013 143.114 126.446 142.926C124.653 142.409 122.827 142.024 120.986 141.753C121.107 141.169 121.423 140.687 121.747 140.2C122.26 140.341 122.792 140.401 123.316 140.369C123.465 140.36 123.854 140.09 123.768 140.624C123.751 140.737 123.963 140.706 124.073 140.678C124.754 140.503 125.325 140.17 125.693 139.545C125.743 139.462 125.845 139.378 125.769 139.274C125.68 139.153 125.55 139.207 125.444 139.248C124.966 139.434 124.536 139.705 124.149 140.04C124.01 140.161 123.904 140.241 123.72 140.085C122.816 139.313 121.771 138.738 120.826 138.026C120.142 137.511 119.536 136.955 119.149 136.278C119.188 136.226 119.201 136.155 119.16 136.081C118.987 135.783 118.92 135.452 118.857 135.116C118.814 134.887 118.762 134.664 118.701 134.443C118.706 134.329 118.714 134.214 118.729 134.095C118.697 134.136 118.667 134.177 118.636 134.218C118.63 134.199 118.626 134.179 118.619 134.16C118.398 133.433 118.52 132.693 118.483 131.949C118.481 131.902 118.463 131.863 118.437 131.834C118.437 131.661 118.429 131.484 118.416 131.307C117.979 131.683 117.853 132.161 117.553 132.598C117.325 131.731 117.222 130.928 117.159 130.119C117.096 129.312 117.159 128.505 117.189 127.601C117.062 127.731 116.94 127.869 116.832 128.012C116.828 127.754 116.837 127.497 116.886 127.242C116.953 126.909 117.066 126.586 117.183 126.268C117.358 126.082 117.546 125.905 117.752 125.738C116.951 125.68 116.177 126.028 115.564 126.586C115.668 126.097 115.619 125.587 115.435 125.124C115.469 124.849 115.435 124.592 115.32 124.373C115.091 124.83 114.755 125.189 114.385 125.518C114.385 125.511 114.39 125.507 114.39 125.502L114.431 125.362C114.561 124.927 114.691 124.481 114.719 124.239C114.784 123.692 115.166 122.666 115.471 121.89C115.878 121.5 116.302 121.128 116.728 120.756C117.674 119.936 118.671 119.17 119.463 118.19C119.77 117.812 120.034 117.409 120.183 116.871C120.201 116.849 120.216 116.827 120.233 116.806C120.575 116.343 120.865 115.845 121.137 115.341C121.286 117.106 121.633 118.867 121.239 120.788C121.877 120.191 122.284 119.622 122.589 118.971C123.054 117.983 122.898 116.994 122.641 115.992C122.167 114.147 122.033 112.304 122.623 110.463C122.851 110.067 123.106 109.686 123.394 109.334C123.536 109.156 123.688 108.983 123.852 108.825C123.082 110.632 123.039 113.26 123.9 114.078C123.96 113.831 124.023 113.606 124.071 113.379C124.371 111.951 124.707 110.532 125.351 109.208C126.279 107.302 127.627 105.946 129.76 105.623C130.615 105.725 131.489 106.002 132.27 106.149C132.46 106.303 132.67 106.45 132.904 106.586C132.992 106.638 133.092 106.709 133.183 106.632C133.31 106.521 133.183 106.417 133.139 106.318C133.066 106.147 132.971 105.985 132.904 105.812C132.075 103.707 133.237 101.598 135.456 101.171C135.619 101.141 135.781 101.111 136.084 101.052C135.244 100.721 134.353 100.711 133.555 100.977C133.384 99.5121 133.41 98.0042 133.674 96.5678C133.923 95.2114 134.848 92.717 136.084 91.7608C139.275 93.2427 142.472 94.7095 145.669 96.1697C146.145 97.2211 146.662 98.2617 147.292 99.233C147.348 99.3152 147.407 99.3996 147.465 99.4839C147.374 99.4731 147.27 99.4753 147.149 99.4839C145.974 99.5597 145.087 100.384 144.774 101.611C144.566 101.388 144.335 101.195 144.086 101.033C144.075 101.02 144.066 101.009 144.056 101C142.318 99.5164 139.132 99.4645 137.328 100.888C135.919 102 135.394 103.997 136.17 105.47C136.583 103.692 137.39 102.234 139.05 101.411C139.487 101.195 139.928 101.048 140.374 100.955C140.413 101 140.475 101.024 140.551 100.998C140.726 100.936 140.908 100.888 141.087 100.851C141.726 100.797 142.375 100.838 143.037 100.944C143.675 101.145 144.252 101.522 144.683 102.078C144.661 102.242 144.651 102.411 144.648 102.584C144.648 102.766 144.609 102.999 144.815 103.077C145.027 103.157 145.148 102.941 145.252 102.805C145.639 102.29 145.957 101.732 146.262 101.165C146.615 100.512 147.065 100.003 147.88 100.018C147.941 100.085 148.004 100.15 148.071 100.211L148.196 100.075C148.17 100.04 148.144 100.005 148.118 99.9685C148.11 99.9556 148.101 99.9426 148.092 99.9296C148.019 99.8171 147.952 99.6981 147.887 99.5835L147.751 99.3195L147.623 99.0491C146.799 97.2254 146.238 95.2957 145.693 93.3725C143.307 84.8317 142.755 75.9274 140.791 67.2762C139.826 63.2265 138.537 57.5477 133.371 57.5456C133.2 57.5412 132.884 57.5521 132.715 57.565C130.658 57.7121 128.477 58.0215 126.472 57.803C124.914 57.6451 123.424 57.1367 121.992 56.5007C121.267 56.174 120.549 55.8344 119.865 55.4406C119.56 55.2611 119.253 55.0772 118.957 54.8782L118.946 54.8544L118.931 54.8609C118.273 54.4195 117.663 53.9155 117.224 53.2686C116.832 52.6737 116.832 52.0247 117.479 51.6872C117.775 51.5769 118.171 51.6353 118.504 51.7024C118.885 51.7759 119.27 51.8841 119.655 51.9923L120.821 52.3254C123.16 53.0047 123.234 53.4504 125.667 53.1951L131.469 51.0015L131.448 50.9539C131.98 51.2048 132.519 51.3411 133.04 51.3411C133.434 51.3411 133.817 51.2632 134.18 51.1032L141.756 47.7478C142.55 48.8273 143.188 49.9912 143.694 51.2113C144.774 53.8073 145.496 56.5548 146.468 59.2113C146.941 60.5634 147.517 61.8852 148.079 63.1962C150.327 68.4098 152.951 73.4309 155.383 78.5537C158.375 84.9528 161.46 91.3325 163.908 97.961C164.142 98.6229 164.365 99.2893 164.553 99.9599C164.728 100.605 164.912 101.297 164.917 101.954C164.798 103.324 164.439 104.698 163.941 105.983C163.539 107.01 163.039 108.014 162.429 108.938C160.992 107.627 157.488 107.56 157.488 107.56C159.076 107.689 160.614 108.52 161.866 109.777C163.424 111.341 164.54 113.567 164.772 115.934C164.11 114.578 162.857 113.632 162.184 112.284C162.18 112.276 162.152 112.28 162.128 112.276C161.998 112.408 162.013 112.581 162.016 112.745C162.065 114.839 163.42 116.139 164.865 117.37C164.867 117.373 164.869 117.375 164.873 117.377C164.93 118.504 164.899 119.166 164.815 119.798C164.441 119.322 164.036 118.861 163.614 118.411C163.805 119.4 164.209 120.313 164.575 121.236C164.529 121.494 164.484 121.777 164.434 122.102L164.917 122.173C165.023 122.495 165.113 122.824 165.181 123.159C165.44 124.481 165.607 125.814 165.721 127.216C165.672 127.426 165.611 127.635 165.509 127.824C165.438 127.956 165.347 128.072 165.252 128.187C165.217 128.12 165.183 128.055 165.146 127.988C164.646 127.11 163.952 126.417 162.885 125.961C164.969 128.542 164.782 131.415 164.438 134.329C163.969 133.405 163.448 132.54 162.626 131.804C162.613 132.215 162.6 132.222 162.725 132.462C163.584 134.11 163.365 135.735 162.656 137.362C162.606 137.474 162.556 137.585 162.504 137.697C162.481 135.858 161.804 133.987 160.644 133.148C160.956 134.554 161.239 135.856 161.315 137.357C161.215 137.163 161.185 137.098 161.152 137.037C161.072 136.888 161.081 136.6 160.865 136.652C160.698 136.691 160.726 136.94 160.702 137.107C160.655 137.431 160.62 137.758 160.568 138.18C159.88 136.419 159.115 135.687 158.26 135.973C158.989 136.533 159.296 137.331 159.275 138.29C159.262 138.885 159.186 139.48 159.14 140.075C159.13 140.202 159.121 140.328 159.112 140.458C159.06 140.572 158.967 140.726 158.885 140.84C158.701 141.091 158.435 141.347 158.18 141.554C157.873 141.803 157.52 142.006 157.144 142.158C157.113 141.561 157.029 140.951 156.888 140.313C156.432 140.977 156.281 141.611 156.168 142.264C156.146 142.392 156.127 142.517 156.11 142.645C156.079 142.72 156.069 142.803 156.082 142.883C155.984 143.735 155.989 144.589 156.121 145.444C156.146 145.615 156.157 145.862 156.255 145.991C156.265 146.327 156.278 146.662 156.263 146.997C156.252 147.25 156.218 147.508 156.146 147.748C155.945 147.32 155.629 146.932 155.208 146.614C155.467 147.276 155.478 147.897 155.387 148.499C155.24 148.879 154.974 149.208 154.621 149.418C154.481 149.502 154.325 149.559 154.186 149.643C154.169 149.615 154.152 149.585 154.132 149.556C154.111 149.615 154.087 149.675 154.063 149.734C154.026 149.766 153.99 149.801 153.959 149.844C153.86 149.978 153.825 150.136 153.817 150.299C153.793 150.35 153.771 150.4 153.747 150.452L153.689 150.504C153.542 150.608 153.364 150.673 153.211 150.77C153.206 150.77 153.204 150.774 153.2 150.777C153.209 150.707 153.213 150.623 153.122 150.599C153.07 150.586 152.982 150.614 152.947 150.655C152.54 151.134 152.088 151.581 151.824 152.157L151.709 152.258C151.59 152.256 151.472 152.282 151.361 152.332C151.353 152.293 151.346 152.252 151.337 152.213C151.4 151.977 151.45 151.731 151.526 151.486C151.13 151.683 150.877 151.979 150.771 152.349C150.615 152.395 150.461 152.445 150.308 152.494C150.595 152.016 150.753 151.452 150.66 151.03C150.639 150.93 150.639 150.809 150.526 150.781C150.405 150.751 150.36 150.867 150.303 150.95C150.072 151.294 149.959 151.713 149.615 152.079C149.849 150.96 149.89 149.939 149.163 149.042C149.185 149.803 148.936 150.482 148.627 151.142C148.298 151.845 147.956 152.544 147.627 153.249C147.575 153.362 147.48 153.509 147.612 153.621C147.738 153.727 147.876 153.637 147.986 153.567C148.363 153.329 148.733 153.083 149.12 152.827C149.133 153.044 148.958 153.225 149.111 153.396C149.194 153.489 149.299 153.418 149.39 153.379C149.628 153.28 149.858 153.089 150.057 152.849C150.072 152.927 150.085 153.003 150.096 153.081C150.109 153.23 150.115 153.381 150.106 153.531C150.1 153.563 150.091 153.595 150.08 153.628C150.067 153.671 150.059 153.714 150.055 153.76C147.329 154.902 144.341 155.289 141.165 154.911C138.338 154.573 135.359 153.632 132.313 152.114C131.424 151.67 130.563 151.194 129.736 150.697C129.775 150.519 129.795 150.337 129.784 150.154L129.775 150.147ZM145.377 165.094C144.873 165.031 144.521 164.691 144.406 164.403C144.32 164.187 144.824 163.609 145.708 163.099C145.879 162.999 145.979 162.79 145.955 162.573C145.931 162.357 145.788 162.18 145.6 162.132C145.232 162.039 144.382 161.632 144.441 159.871C144.454 159.458 144.588 159.328 144.687 159.266C145.276 158.896 146.89 159.581 147.898 160.209C147.822 160.471 147.768 160.747 147.744 161.037C147.679 161.81 147.826 162.541 148.123 163.136C147.197 164.503 146.225 165.2 145.375 165.091L145.377 165.094ZM150.507 158.048C149.721 157.963 148.979 158.366 148.46 159.062C148.294 159.103 148.123 159.144 147.943 159.185C147.671 159.034 147.296 158.837 146.883 158.662C145.719 158.169 144.845 158.097 144.285 158.448C143.995 158.63 143.645 159.019 143.616 159.832C143.616 159.871 143.616 159.908 143.616 159.947C137.209 160.717 132.404 159.179 126.078 154.61C126.264 154.461 126.424 154.283 126.552 154.078C126.937 153.474 126.957 152.784 126.691 152.224C127.264 152.429 127.895 152.455 128.473 152.198C128.724 152.09 128.951 151.932 129.144 151.739C133.232 154.21 138.273 156.291 143.478 156.291C145.912 156.291 148.382 155.834 150.807 154.753C150.885 154.768 151.011 154.813 151.123 154.939C151.316 155.16 151.415 155.568 151.409 156.122C151.407 156.377 151.409 156.609 151.409 156.819C151.413 157.438 151.415 157.883 151.307 158.08C151.279 158.132 151.229 158.184 151.158 158.234C150.954 158.136 150.738 158.071 150.509 158.048H150.507Z" fill="#4D4D4D"/>
<path d="M82.3961 175.062C82.4372 175.03 82.4697 175.002 82.3961 175.062V175.062Z" fill="#4D4D4D"/>
<path d="M83.6921 173.73C83.6921 173.73 83.7029 173.717 83.7073 173.71C83.7073 173.71 83.7094 173.706 83.7116 173.706C83.7137 173.704 83.7159 173.699 83.7181 173.697C83.6121 173.827 83.6553 173.775 83.6921 173.732V173.73Z" fill="#4D4D4D"/>
<path d="M138.883 121.178L139.028 121.295C140.045 120.453 141.196 119.605 142.459 119.361C143.056 119.25 143.601 119.467 144.211 119.397C144.925 119.341 145.628 119.285 146.355 118.991L146.403 118.811C145.868 118.153 145.211 117.762 144.415 117.548C143.614 117.321 142.725 117.613 141.992 117.948C140.534 118.593 139.586 119.847 138.883 121.18V121.178Z" fill="#4D4D4D"/>
<path d="M158.809 117.834C158.327 117.15 157.62 116.564 156.847 116.194C156.313 115.945 155.74 115.785 155.184 115.595C154.299 115.352 153.38 115.748 152.733 116.402L152.737 116.588C153.356 117.148 154.241 117.555 155.039 117.434C156.283 117.198 157.522 117.464 158.69 117.979L158.809 117.834Z" fill="#4D4D4D"/>
<path d="M143.181 125.26C144.009 125.26 144.681 124.201 144.681 122.894C144.681 121.586 144.009 120.527 143.181 120.527C142.353 120.527 141.682 121.586 141.682 122.894C141.682 124.201 142.353 125.26 143.181 125.26Z" fill="#4D4D4D"/>
<path d="M154.896 118.543C154.037 118.543 153.341 119.501 153.341 120.682C153.341 121.864 154.037 122.822 154.896 122.822C155.755 122.822 156.451 121.864 156.451 120.682C156.451 119.501 155.755 118.543 154.896 118.543Z" fill="#4D4D4D"/>
<path d="M152.493 127.863C150.078 128.09 149.04 128.683 148.767 129.63C148.495 130.578 147.846 132.456 150.344 132.778C151.748 132.958 151.586 135.028 153.423 134.959C155.909 134.866 155.322 132.702 156.289 132.523C157.689 132.263 157.78 130.483 157.075 129.356C156.246 128.032 155.009 127.627 152.495 127.863H152.493Z" fill="#4D4D4D"/>
<path d="M131.102 131.709C131.301 131.975 131.5 132.244 131.699 132.51C131.552 129.412 130.989 126.316 132.181 123.296C131.093 124.311 130.386 125.533 130.044 126.974C129.825 125.42 129.676 123.871 129.996 122.167C129.349 123.013 129.01 123.835 128.795 124.709C128.324 126.632 128.473 128.542 128.966 130.437C129.271 131.608 129.442 132.789 129.44 134C129.44 135.184 129.248 136.343 129.023 137.617C129.97 136.847 130.598 136.001 130.941 134.943C131.288 133.879 131.216 132.8 131.102 131.707V131.709Z" fill="#4D4D4D"/>
<path d="M154.716 139.519C154.66 140.947 154.52 142.359 153.968 143.698C153.2 145.567 151.679 146.169 149.842 145.336C148.456 144.709 147.335 143.742 146.331 142.625C145.529 141.732 144.862 140.745 144.322 139.659C144.22 140.421 144.313 141.152 144.564 141.857C145.427 144.285 147.127 145.974 149.356 147.153C150.883 147.96 152.376 147.765 153.745 146.731C154.952 145.818 155.64 144.568 155.895 143.099C156.153 141.613 155.85 140.246 154.736 138.982C154.727 139.255 154.723 139.387 154.719 139.519H154.716Z" fill="#4D4D4D"/>
<path d="M139.595 139.69C139.513 138.865 139.413 138.041 139.344 137.215C139.24 135.975 138.567 134.286 138.972 133.094C139.119 132.657 139.296 132.23 139.461 131.8C138.926 132.021 138.671 132.488 138.258 132.908C138.662 131.38 139.266 130.461 140.211 129.31C142.009 127.832 143.184 127.772 145.944 127.434C145.174 126.928 144.283 126.309 142.654 126.857C139.802 127.698 138.158 129.769 137.317 132.263C136.975 133.278 136.923 134.322 137.312 135.352C137.362 135.482 137.367 135.603 137.349 135.746C137.152 137.353 138.422 139.235 139.175 140.605C139.244 140.73 139.342 140.908 139.517 140.849C139.696 140.791 139.647 140.592 139.645 140.447C139.64 140.194 139.619 139.941 139.595 139.688V139.69Z" fill="#4D4D4D"/>
<path d="M134.003 124.103C134.139 124.159 134.28 124.302 134.416 124.168C134.539 124.047 134.381 123.925 134.342 123.804C134.325 123.752 134.258 123.696 134.349 123.629C134.682 123.763 134.926 124.096 135.374 124.109C135.058 122.682 133.786 121.821 133.326 120.388C132.992 121.024 133.157 121.572 133.25 122.251C132.413 121.141 131.792 120.086 131.212 118.991C130.6 117.831 131.084 116.555 130.751 115.335C130.429 115.553 130.42 115.841 130.37 116.094C130.269 116.609 130.223 117.135 130.232 117.66C130.282 120.514 131.119 122.906 134.003 124.101V124.103Z" fill="#4D4D4D"/>
<path d="M113.581 156.652C111.96 157.273 111.032 158.476 110.768 160.161C110.526 161.712 111.212 163.039 112.605 163.43C112.772 163.478 112.85 163.595 112.932 163.726C112.992 163.824 113.053 163.954 113.196 163.93C113.358 163.904 113.382 163.75 113.416 163.62C113.442 163.523 113.453 163.421 113.473 163.32C113.678 162.247 113.321 161.154 113.587 160.081C113.607 159.999 113.596 159.861 113.473 159.83C113.367 159.807 113.287 159.889 113.219 159.967C112.769 160.501 112.532 161.124 112.408 161.801C111.906 159.796 112.763 158.18 113.905 156.652C113.834 156.62 113.804 156.592 113.78 156.596C113.713 156.607 113.648 156.626 113.585 156.65L113.581 156.652Z" fill="#4D4D4D"/>
<path d="M155.294 110.268C155.27 110.55 155.673 110.543 155.904 110.582C157.959 110.935 159.275 112.198 160.179 113.989C160.285 114.199 160.406 114.405 160.529 114.606C160.592 114.705 160.676 114.818 160.806 114.801C160.977 114.777 160.986 114.606 160.999 114.48C161.057 113.955 160.99 113.431 160.899 112.919C160.657 111.37 159.761 110.47 158.23 110.18C157.477 110.037 156.72 109.968 155.956 110.035C155.714 110.056 155.314 110.015 155.294 110.268Z" fill="#4D4D4D"/>
<path d="M145.299 134.208C145.38 134.086 145.503 133.98 145.431 133.775C145.137 133.827 144.906 133.993 144.679 134.16C143.995 134.666 143.376 135.242 142.79 135.856C140.932 137.801 141.442 140.754 142.799 142.43C142.721 141.418 142.61 140.529 142.608 139.633C142.604 138.095 143.017 136.73 144.142 135.62C144.575 135.194 144.962 134.718 145.297 134.205L145.299 134.208Z" fill="#4D4D4D"/>
<path d="M134.744 131.194C135.499 129.859 136.185 128.635 136.884 127.419C137.583 126.201 138.636 125.295 139.703 124.403C137.492 124.544 134.284 127.642 134.744 131.194Z" fill="#4D4D4D"/>
<path d="M136.895 138.491C136.514 139.32 136.629 140.001 136.886 140.65C137.3 141.689 137.652 142.746 137.959 143.82C138.072 144.209 138.23 144.587 138.455 144.929C138.554 145.081 138.643 145.304 138.855 145.271C139.106 145.232 139.115 144.962 139.13 144.778C139.24 143.428 139.225 142.113 138.282 140.981C137.702 140.282 137.133 139.558 136.897 138.493L136.895 138.491Z" fill="#4D4D4D"/>
<path d="M146.952 138.368C147.489 138.422 147.898 138.363 148.296 138.197C148.371 138.164 148.534 137.996 148.555 138.201C148.596 138.604 148.871 138.495 149.068 138.452C149.341 138.389 149.425 138.491 149.479 138.729C149.613 139.307 149.778 139.876 150.007 140.423C150.178 140.827 150.34 141.245 150.665 141.556C150.922 141.801 151.136 141.719 151.177 141.366C151.199 141.184 151.188 140.992 151.154 140.812C151.009 140.031 150.636 139.35 150.195 138.701C149.845 138.184 149.847 138.182 150.407 137.87C150.357 138.048 150.184 138.18 150.234 138.385C150.903 138.234 151.298 137.743 151.229 137.143C151.06 137.269 150.894 137.392 150.704 137.533C150.695 137.256 150.991 137.096 150.851 136.797C150.29 137.212 149.704 137.563 149.005 137.801C149.23 137.416 149.611 137.143 149.624 136.596C148.735 137.225 147.688 137.485 146.948 138.37L146.952 138.368Z" fill="#4D4D4D"/>
<path d="M135.815 149.21C135.398 148.745 134.961 148.3 134.6 147.785C134.015 146.948 133.71 145.929 134.526 144.94C134.55 144.91 134.535 144.847 134.539 144.778C133.767 144.769 133.416 145.288 133.163 145.872C132.759 146.809 132.692 147.772 133.367 148.607C134.057 149.457 135.073 149.574 136.101 149.715C136.088 149.414 135.921 149.329 135.811 149.21H135.815Z" fill="#4D4D4D"/>
<path d="M125.78 127.923C125.652 127.858 125.559 127.967 125.468 128.04C125.403 128.094 125.345 128.155 125.289 128.218C124.339 129.297 123.733 130.55 123.465 131.954C123.331 132.655 123.342 133.366 123.857 134.026C124.14 133.585 124.328 133.169 124.478 132.739C124.953 131.365 125.243 129.931 125.793 128.579C125.83 128.486 125.858 128.384 125.869 128.285C125.882 128.157 125.933 128.001 125.78 127.923Z" fill="#4D4D4D"/>
<path d="M128.198 135.283C128.021 135.705 127.859 136.133 127.681 136.553C127.26 137.55 126.987 138.608 126.416 139.543C126.316 139.707 126.202 139.919 126.316 140.116C126.39 140.241 126.556 140.222 126.691 140.17C127.404 139.893 128.138 139.495 128.389 138.801C128.852 137.522 128.657 136.148 128.707 134.703C128.358 134.909 128.278 135.099 128.201 135.283H128.198Z" fill="#4D4D4D"/>
<path d="M156.874 122.39C158.844 122.522 160.462 123.233 161.812 124.544C161.897 124.626 161.998 124.696 162.102 124.748C162.278 124.832 162.477 125.016 162.654 124.854C162.831 124.691 162.699 124.464 162.604 124.291C161.955 123.114 161.001 122.279 159.71 121.892C158.738 121.6 157.812 121.792 156.871 122.39H156.874Z" fill="#4D4D4D"/>
<path d="M132.984 173.996C131.285 175.867 132.209 178.976 133.957 179.863C133.979 177.862 132.849 176.077 132.984 173.996Z" fill="#4D4D4D"/>
<path d="M128.172 108.704C126.121 109.338 124.694 111.878 125.26 113.767C126.61 112.315 126.905 110.299 128.172 108.704Z" fill="#4D4D4D"/>
<path d="M150.779 101.632C151.621 101.966 151.967 102.645 152.118 103.471C152.181 103.822 152.22 104.174 152.283 104.525C152.348 104.884 152.393 105.252 152.62 105.652C152.748 105.444 152.834 105.321 152.904 105.187C153.946 103.207 153.066 101.42 150.933 101.185C150.755 101.165 150.504 101.096 150.444 101.306C150.39 101.487 150.636 101.574 150.779 101.63V101.632Z" fill="#4D4D4D"/>
<path d="M120.744 126.651C122.712 125.972 123.787 123.536 122.907 121.762C122.589 123.549 121.092 124.823 120.744 126.651Z" fill="#4D4D4D"/>
<path d="M126.558 163.185C127.725 162.599 128.203 161.45 127.761 160.442C127.324 159.447 126.15 158.898 125.159 159.285C127.089 160.051 126.74 161.624 126.558 163.185Z" fill="#4D4D4D"/>
<path d="M132.685 130.409C132.27 131.975 131.906 133.49 132.638 135.101C133.475 134.046 133.414 131.517 132.685 130.409Z" fill="#4D4D4D"/>
<path d="M134.954 141.26C135.666 139.763 135.519 138.195 135.705 136.6C134.448 137.71 134.089 139.984 134.954 141.26Z" fill="#4D4D4D"/>
<path d="M148.181 105.738C148.324 105.805 148.447 105.734 148.553 105.645C148.93 105.332 149.144 104.916 149.267 104.557C149.585 103.529 149.232 102.703 148.85 101.887C148.798 101.775 148.744 101.591 148.583 101.632C148.415 101.678 148.486 101.866 148.488 101.987C148.506 103.023 148.404 104.04 148.103 105.035C148.069 105.148 148.047 105.267 148.043 105.383C148.04 105.515 148.032 105.667 148.181 105.736V105.738Z" fill="#4D4D4D"/>
<path d="M136.938 115.311C137.135 114.474 137.208 113.602 137.596 112.815C137.656 112.693 137.769 112.546 137.645 112.449C137.496 112.33 137.366 112.494 137.269 112.592C136.538 113.299 136.062 114.141 136.034 115.177C136.021 115.648 136.125 116.107 136.514 116.542C136.717 116.116 136.843 115.72 136.94 115.313L136.938 115.311Z" fill="#4D4D4D"/>
<path d="M137.522 165.799C137.349 165.823 137.367 166.039 137.345 166.18C137.254 166.787 137.003 167.25 136.38 167.482C136.036 167.61 135.72 167.83 135.476 168.116C135.298 168.323 135.285 168.509 135.627 168.574C136.423 168.724 137.68 167.971 137.901 167.203C137.992 166.829 137.961 166.463 137.784 166.121C137.719 165.996 137.708 165.773 137.524 165.799H137.522Z" fill="#4D4D4D"/>
<path d="M144.464 138.255C144.412 138.366 144.363 138.483 144.464 138.584C144.547 138.666 144.653 138.641 144.75 138.602C144.858 138.556 144.977 138.522 145.072 138.454C145.896 137.881 146.781 137.416 147.662 136.942C147.809 136.864 147.965 136.784 148.071 136.495C146.898 136.555 145.86 136.739 145.018 137.537C144.795 137.749 144.596 137.979 144.462 138.255H144.464Z" fill="#4D4D4D"/>
<path d="M140.224 139.062C140.105 140.802 140.752 142.201 141.892 143.475C142.003 142.58 140.984 139.91 140.224 139.062Z" fill="#4D4D4D"/>
<path d="M133.126 137.727C133.129 137.823 133.148 137.955 133.271 137.957C133.332 137.957 133.416 137.87 133.455 137.803C133.786 137.232 134.1 136.639 134.176 135.979C134.241 135.419 134.215 134.842 133.916 134.29C133.336 135.365 133.098 136.516 133.126 137.725V137.727Z" fill="#4D4D4D"/>
<path d="M143.794 146.063C143.205 147.223 142.5 148.315 142.883 149.715C143.766 149.007 144.233 147.136 143.794 146.063Z" fill="#4D4D4D"/>
<path d="M140.22 145.325C140.11 145.358 140.075 145.468 140.06 145.565C139.913 146.612 140.012 147.62 140.575 148.544C140.625 148.624 140.715 148.728 140.791 148.732C140.949 148.739 140.912 148.564 140.96 148.479C141.133 147.858 140.811 145.97 140.454 145.468C140.393 145.384 140.337 145.291 140.218 145.325H140.22Z" fill="#4D4D4D"/>
<path d="M138.833 104.678C139.063 104.81 139.21 104.59 139.333 104.44C139.96 103.674 140.348 102.781 140.733 101.864C139.917 101.927 138.9 103.136 138.738 104.161C138.71 104.341 138.652 104.574 138.835 104.678H138.833Z" fill="#4D4D4D"/>
<path d="M148.687 178.104C147.976 177.494 147.037 177.284 146.26 176.683C146.256 177.113 146.414 177.403 146.641 177.659C147.115 178.191 147.692 178.558 148.389 178.719C148.64 178.777 149.01 178.995 149.135 178.751C149.269 178.487 148.893 178.282 148.69 178.106L148.687 178.104Z" fill="#4D4D4D"/>
<path d="M134.13 138.086C134.156 138.247 134.184 138.463 134.394 138.465C134.597 138.467 134.636 138.251 134.686 138.097C135.008 137.126 135.106 136.124 135.099 134.96C134.236 135.932 133.951 136.94 134.13 138.086Z" fill="#4D4D4D"/>
<path d="M142.338 145.65C142.241 145.658 142.206 145.747 142.182 145.827C142.061 146.232 141.942 146.636 141.793 147.147C141.749 147.556 141.431 148.019 141.483 148.561C141.494 148.665 141.511 148.771 141.607 148.823C141.715 148.882 141.791 148.802 141.868 148.735C142.517 148.176 142.861 146.586 142.494 145.818C142.459 145.747 142.446 145.641 142.338 145.652V145.65Z" fill="#4D4D4D"/>
<path d="M155.147 105.632C155.229 105.797 155.337 105.9 155.454 105.656C155.984 104.544 155.573 102.958 154.613 102.658C154.829 103.272 154.829 103.867 154.87 104.455C154.9 104.862 154.959 105.264 155.147 105.634V105.632Z" fill="#4D4D4D"/>
<path d="M117.68 168.481C117.457 169.122 117.54 169.751 117.784 170.368C117.858 170.55 117.929 170.826 118.154 170.792C118.416 170.753 118.394 170.456 118.405 170.242C118.416 170.007 118.433 169.764 118.39 169.535C118.277 168.946 118.24 168.369 118.511 167.791C117.998 167.921 117.827 168.062 117.68 168.481Z" fill="#4D4D4D"/>
<path d="M146.541 152.377C146.535 152.524 146.539 152.713 146.703 152.773C146.9 152.845 147.015 152.678 147.102 152.537C147.642 151.655 147.582 150.751 147.136 149.835C146.868 150.675 146.578 151.497 146.541 152.377Z" fill="#4D4D4D"/>
<path d="M125.321 134.77C125.821 133.792 125.604 132.769 125.585 131.731C124.761 132.518 124.631 134.093 125.321 134.77Z" fill="#4D4D4D"/>
<path d="M154.809 138.32C155.05 138.242 154.863 138.063 154.753 137.978C154.455 137.749 154.111 137.598 153.745 137.52C153.384 137.444 153.061 137.344 152.923 136.791C152.841 137.02 152.797 137.081 152.8 137.143C152.806 137.502 152.813 137.913 153.191 138.065C153.704 138.268 154.247 138.506 154.812 138.32H154.809Z" fill="#4D4D4D"/>
<path d="M135.913 162.483C135.954 162.316 135.815 162.23 135.701 162.175C135.119 161.903 134.5 161.84 133.868 161.927C133.797 161.937 133.702 161.996 133.676 162.056C133.637 162.143 133.732 162.201 133.799 162.253C134.022 162.42 134.292 162.472 134.548 162.556C134.887 162.669 135.229 162.768 135.593 162.688C135.725 162.66 135.876 162.638 135.915 162.483H135.913Z" fill="#4D4D4D"/>
<path d="M154.6 136.834C154.664 137.762 155.147 138.262 155.818 138.621C155.947 138.69 156.112 138.783 156.235 138.643C156.391 138.467 156.222 138.322 156.12 138.208C155.688 137.719 155.177 137.316 154.597 136.832L154.6 136.834Z" fill="#4D4D4D"/>
<path d="M145.553 149.126C145.425 149.083 145.382 149.223 145.351 149.301C145.079 150.017 144.942 150.746 145.209 151.649C145.754 150.859 145.799 150.104 145.68 149.323C145.669 149.252 145.613 149.148 145.553 149.128V149.126Z" fill="#4D4D4D"/>
<path d="M145.7 136.315C144.832 136.421 143.941 137.334 143.839 138.188C144.733 137.79 145.198 137.1 145.7 136.315Z" fill="#4D4D4D"/>
<path d="M144.086 150.837C144.136 150.939 144.198 151.086 144.337 151.036C144.454 150.993 144.456 150.837 144.456 150.723C144.462 150.03 144.302 149.366 144.069 148.713C143.644 149.435 143.744 150.141 144.086 150.837Z" fill="#4D4D4D"/>
<path d="M133.736 106.017C133.905 105.963 133.871 105.766 133.866 105.619C133.847 105.106 133.609 104.646 133.503 104.152C133.477 104.031 133.533 103.815 133.38 103.806C133.219 103.795 133.196 104.01 133.137 104.135C133.04 104.713 133.159 105.247 133.423 105.753C133.49 105.883 133.559 106.076 133.739 106.019L133.736 106.017Z" fill="#4D4D4D"/>
<path d="M157.391 125.449C158.306 125.946 159.138 126.403 160.164 126.5C159.72 125.574 158.459 125.087 157.391 125.449Z" fill="#4D4D4D"/>
<path d="M158.474 126.547C159.11 126.958 159.571 127.54 160.378 127.521C160.053 126.753 159.305 126.355 158.474 126.547Z" fill="#4D4D4D"/>
<path d="M157.243 105.857C156.659 106.205 156.224 106.655 156.118 107.462C156.875 107.11 157.135 106.536 157.243 105.857Z" fill="#4D4D4D"/>
<path d="M156.095 136.981C156.296 137.583 156.579 138.065 157.245 138.312C157.116 137.604 156.692 137.12 156.095 136.981Z" fill="#4D4D4D"/>
<path d="M152.404 137.526C151.947 137.656 151.461 137.73 151.166 138.284C151.798 138.271 152.162 137.991 152.404 137.526Z" fill="#4D4D4D"/>
<path d="M141.174 174.829C141.005 173.626 140.891 172.428 141.137 171.108C140.637 171.763 140.374 172.399 140.209 173.077C139.843 174.565 139.96 176.045 140.341 177.509C140.577 178.416 140.709 179.329 140.707 180.267C140.707 181.183 140.557 182.08 140.382 183.067C141.116 182.472 141.6 181.816 141.868 180.997C142.137 180.172 142.083 179.337 141.994 178.491C142.147 178.699 142.301 178.905 142.457 179.112C142.342 176.715 141.907 174.318 142.831 171.982C141.99 172.767 141.442 173.713 141.176 174.827L141.174 174.829Z" fill="#4D4D4D"/>
<path d="M107.616 170.935C107.275 171.949 107.223 172.994 107.612 174.024C107.662 174.154 107.666 174.275 107.649 174.418C107.452 176.025 108.001 177.449 108.756 178.818C108.826 178.943 108.923 179.121 109.098 179.062C109.278 179.004 109.228 178.805 109.226 178.66C109.222 178.407 109.2 178.154 109.176 177.901C109.094 177.076 108.994 176.252 108.925 175.426C108.821 174.186 108.867 172.955 109.271 171.763C109.418 171.326 109.596 170.9 109.76 170.47C109.226 170.69 108.971 171.158 108.557 171.577C108.962 170.05 109.721 168.808 110.669 167.659C111.597 166.53 112.707 165.587 113.901 164.562C113.187 164.557 112.694 164.776 112.235 165.066C110.005 166.474 108.458 168.436 107.616 170.93V170.935Z" fill="#4D4D4D"/>
<path d="M129.334 164.866C128.65 165.373 128.032 165.948 127.445 166.563C125.587 168.507 126.098 171.46 127.454 173.137C127.376 172.124 127.266 171.235 127.264 170.34C127.259 168.802 127.673 167.437 128.797 166.327C129.23 165.901 129.617 165.425 129.953 164.912C130.033 164.791 130.156 164.685 130.085 164.479C129.79 164.531 129.559 164.698 129.332 164.864L129.334 164.866Z" fill="#4D4D4D"/>
<path d="M117.419 175.549C117.291 175.484 117.198 175.592 117.107 175.666C117.042 175.72 116.984 175.781 116.927 175.843C115.978 176.923 115.372 178.176 115.104 179.58C114.97 180.28 114.98 180.992 115.495 181.652C115.779 181.211 115.967 180.795 116.116 180.365C116.592 178.991 116.882 177.557 117.432 176.205C117.468 176.112 117.496 176.01 117.507 175.911C117.52 175.783 117.572 175.627 117.419 175.549Z" fill="#4D4D4D"/>
<path d="M147.006 113.996C147.136 114.29 147.277 114.58 147.439 114.855C147.517 114.989 147.625 115.19 147.818 115.108C147.969 115.045 147.945 114.844 147.928 114.695C147.854 114.057 147.629 113.477 147.199 112.997C146.868 112.631 146.465 112.462 145.903 112.696C146.502 112.999 146.779 113.475 147.008 113.996H147.006Z" fill="#4D4D4D"/>
<path d="M149.016 115.545C149.194 115.489 149.183 115.309 149.159 115.16C149.042 114.439 148.629 113.95 147.876 113.591C148.101 114.271 148.313 114.85 148.687 115.357C148.77 115.467 148.873 115.59 149.016 115.543V115.545Z" fill="#4D4D4D"/>
</svg>
